<mxfile host="app.diagrams.net" modified="2023-07-03T09:10:46.824Z" agent="5.0 (Macintosh; Intel Mac OS X 10_15_7) AppleWebKit/537.36 (KHTML, like Gecko) Chrome/114.0.0.0 Safari/537.36" etag="cxnS9vgI64tZt2gNmOSl" version="21.0.2" type="github">
  <diagram name="第 1 页" id="mjhyNosL_M_Hfxu1aokt">
    <mxGraphModel dx="1644" dy="2632" grid="1" gridSize="10" guides="1" tooltips="1" connect="1" arrows="1" fold="1" page="1" pageScale="1" pageWidth="690" pageHeight="2000" math="0" shadow="0">
      <root>
        <mxCell id="0" />
        <mxCell id="1" parent="0" />
        <mxCell id="VEVb_EyQW8ueSsU06ZdD-1" value="ArrayBuffer（ES标准）" style="rounded=0;whiteSpace=wrap;html=1;" parent="1" vertex="1">
          <mxGeometry x="-600" y="-1340" width="140" height="60" as="geometry" />
        </mxCell>
        <mxCell id="VEVb_EyQW8ueSsU06ZdD-2" value="代表存储二进制数据的一段内存，可读不能直接写，需要通过“视图” 来它进行操作" style="text;html=1;strokeColor=none;fillColor=none;align=center;verticalAlign=middle;whiteSpace=wrap;rounded=0;" parent="1" vertex="1">
          <mxGeometry x="-50" y="-1325" width="240" height="30" as="geometry" />
        </mxCell>
        <mxCell id="VEVb_EyQW8ueSsU06ZdD-3" value="" style="endArrow=none;dashed=1;html=1;dashPattern=1 3;strokeWidth=2;rounded=0;entryX=0;entryY=0.5;entryDx=0;entryDy=0;exitX=1;exitY=0.5;exitDx=0;exitDy=0;" parent="1" source="VEVb_EyQW8ueSsU06ZdD-1" target="VEVb_EyQW8ueSsU06ZdD-2" edge="1">
          <mxGeometry width="50" height="50" relative="1" as="geometry">
            <mxPoint x="-440" y="-1300" as="sourcePoint" />
            <mxPoint x="-300" y="-1520" as="targetPoint" />
          </mxGeometry>
        </mxCell>
        <mxCell id="VEVb_EyQW8ueSsU06ZdD-4" value="视图" style="swimlane;whiteSpace=wrap;html=1;" parent="1" vertex="1">
          <mxGeometry x="-650" y="-1930" width="490" height="420" as="geometry" />
        </mxCell>
        <mxCell id="VEVb_EyQW8ueSsU06ZdD-11" value="TypedArray" style="rounded=0;whiteSpace=wrap;html=1;" parent="VEVb_EyQW8ueSsU06ZdD-4" vertex="1">
          <mxGeometry x="90" y="280" width="120" height="60" as="geometry" />
        </mxCell>
        <mxCell id="VEVb_EyQW8ueSsU06ZdD-12" value="Uint8Array" style="rounded=0;whiteSpace=wrap;html=1;" parent="VEVb_EyQW8ueSsU06ZdD-4" vertex="1">
          <mxGeometry x="90" y="180" width="120" height="60" as="geometry" />
        </mxCell>
        <mxCell id="VEVb_EyQW8ueSsU06ZdD-13" value="Buffer（Nodejs提供）" style="rounded=0;whiteSpace=wrap;html=1;" parent="VEVb_EyQW8ueSsU06ZdD-4" vertex="1">
          <mxGeometry x="290" y="180" width="130" height="60" as="geometry" />
        </mxCell>
        <mxCell id="VEVb_EyQW8ueSsU06ZdD-15" value="" style="endArrow=block;dashed=1;endFill=0;endSize=12;html=1;rounded=0;exitX=0.5;exitY=1;exitDx=0;exitDy=0;entryX=0.5;entryY=0;entryDx=0;entryDy=0;" parent="VEVb_EyQW8ueSsU06ZdD-4" source="VEVb_EyQW8ueSsU06ZdD-12" target="VEVb_EyQW8ueSsU06ZdD-11" edge="1">
          <mxGeometry width="160" relative="1" as="geometry">
            <mxPoint x="250" y="330" as="sourcePoint" />
            <mxPoint x="410" y="330" as="targetPoint" />
          </mxGeometry>
        </mxCell>
        <mxCell id="VEVb_EyQW8ueSsU06ZdD-16" value="" style="endArrow=block;dashed=1;endFill=0;endSize=12;html=1;rounded=0;exitX=0;exitY=0.5;exitDx=0;exitDy=0;entryX=1;entryY=0.5;entryDx=0;entryDy=0;" parent="VEVb_EyQW8ueSsU06ZdD-4" source="VEVb_EyQW8ueSsU06ZdD-13" target="VEVb_EyQW8ueSsU06ZdD-12" edge="1">
          <mxGeometry width="160" relative="1" as="geometry">
            <mxPoint x="250" y="330" as="sourcePoint" />
            <mxPoint x="410" y="330" as="targetPoint" />
          </mxGeometry>
        </mxCell>
        <mxCell id="VEVb_EyQW8ueSsU06ZdD-17" value="DataView（指定字节序）" style="whiteSpace=wrap;html=1;" parent="VEVb_EyQW8ueSsU06ZdD-4" vertex="1">
          <mxGeometry x="290" y="280" width="130" height="60" as="geometry" />
        </mxCell>
        <mxCell id="VEVb_EyQW8ueSsU06ZdD-5" value="" style="endArrow=none;html=1;rounded=0;" parent="1" edge="1">
          <mxGeometry width="50" height="50" relative="1" as="geometry">
            <mxPoint x="-680" y="-1410" as="sourcePoint" />
            <mxPoint x="260" y="-1410" as="targetPoint" />
          </mxGeometry>
        </mxCell>
        <mxCell id="VEVb_EyQW8ueSsU06ZdD-8" value="" style="shape=flexArrow;endArrow=classic;html=1;rounded=0;entryX=0.5;entryY=0;entryDx=0;entryDy=0;exitX=0.25;exitY=1;exitDx=0;exitDy=0;" parent="1" source="VEVb_EyQW8ueSsU06ZdD-4" target="VEVb_EyQW8ueSsU06ZdD-1" edge="1">
          <mxGeometry width="50" height="50" relative="1" as="geometry">
            <mxPoint x="-510" y="-1520" as="sourcePoint" />
            <mxPoint x="-260" y="-1390" as="targetPoint" />
          </mxGeometry>
        </mxCell>
        <mxCell id="VEVb_EyQW8ueSsU06ZdD-9" value="根据（显式/系统默认）字节序读写操作" style="edgeLabel;html=1;align=center;verticalAlign=middle;resizable=0;points=[];" parent="VEVb_EyQW8ueSsU06ZdD-8" vertex="1" connectable="0">
          <mxGeometry x="-0.3143" y="4" relative="1" as="geometry">
            <mxPoint as="offset" />
          </mxGeometry>
        </mxCell>
        <mxCell id="VEVb_EyQW8ueSsU06ZdD-22" value="可以从 ArrayBuffer 对象中读写多种数值类型的复合视图，可以指定字节序读写" style="text;html=1;align=center;verticalAlign=middle;resizable=0;points=[];autosize=1;strokeColor=none;fillColor=none;" parent="1" vertex="1">
          <mxGeometry x="-120" y="-1635" width="440" height="30" as="geometry" />
        </mxCell>
        <mxCell id="VEVb_EyQW8ueSsU06ZdD-23" value="" style="edgeStyle=orthogonalEdgeStyle;rounded=0;orthogonalLoop=1;jettySize=auto;html=1;dashed=1;startArrow=none;startFill=0;endArrow=none;endFill=0;" parent="1" source="VEVb_EyQW8ueSsU06ZdD-17" target="VEVb_EyQW8ueSsU06ZdD-22" edge="1">
          <mxGeometry relative="1" as="geometry" />
        </mxCell>
        <mxCell id="VEVb_EyQW8ueSsU06ZdD-24" value="buf1" style="whiteSpace=wrap;html=1;" parent="1" vertex="1">
          <mxGeometry x="-590" y="-1010" width="120" height="60" as="geometry" />
        </mxCell>
        <mxCell id="VEVb_EyQW8ueSsU06ZdD-26" value="buf2" style="whiteSpace=wrap;html=1;" parent="1" vertex="1">
          <mxGeometry x="-345" y="-1010" width="120" height="60" as="geometry" />
        </mxCell>
        <mxCell id="VEVb_EyQW8ueSsU06ZdD-27" value="buf3" style="whiteSpace=wrap;html=1;" parent="1" vertex="1">
          <mxGeometry x="-90" y="-1010" width="120" height="60" as="geometry" />
        </mxCell>
        <mxCell id="VEVb_EyQW8ueSsU06ZdD-28" value="arraybuffer" style="shape=cylinder3;whiteSpace=wrap;html=1;boundedLbl=1;backgroundOutline=1;size=15;" parent="1" vertex="1">
          <mxGeometry x="-560" y="-780" width="60" height="80" as="geometry" />
        </mxCell>
        <mxCell id="VEVb_EyQW8ueSsU06ZdD-29" value="" style="endArrow=classic;html=1;rounded=0;exitX=0.5;exitY=1;exitDx=0;exitDy=0;entryX=0.5;entryY=0;entryDx=0;entryDy=0;entryPerimeter=0;" parent="1" source="VEVb_EyQW8ueSsU06ZdD-24" target="VEVb_EyQW8ueSsU06ZdD-28" edge="1">
          <mxGeometry width="50" height="50" relative="1" as="geometry">
            <mxPoint x="-260" y="-790" as="sourcePoint" />
            <mxPoint x="-210" y="-840" as="targetPoint" />
          </mxGeometry>
        </mxCell>
        <mxCell id="VEVb_EyQW8ueSsU06ZdD-31" value="" style="endArrow=classic;html=1;rounded=0;exitX=0.5;exitY=1;exitDx=0;exitDy=0;" parent="1" source="VEVb_EyQW8ueSsU06ZdD-26" edge="1">
          <mxGeometry width="50" height="50" relative="1" as="geometry">
            <mxPoint x="-260" y="-790" as="sourcePoint" />
            <mxPoint x="-530" y="-780" as="targetPoint" />
          </mxGeometry>
        </mxCell>
        <mxCell id="VEVb_EyQW8ueSsU06ZdD-32" value="const buf2 =&amp;nbsp; Buffer.from(buf1)" style="edgeLabel;html=1;align=center;verticalAlign=middle;resizable=0;points=[];" parent="VEVb_EyQW8ueSsU06ZdD-31" vertex="1" connectable="0">
          <mxGeometry x="-0.0619" y="2" relative="1" as="geometry">
            <mxPoint as="offset" />
          </mxGeometry>
        </mxCell>
        <mxCell id="VEVb_EyQW8ueSsU06ZdD-33" value="arraybuffer" style="shape=cylinder3;whiteSpace=wrap;html=1;boundedLbl=1;backgroundOutline=1;size=15;" parent="1" vertex="1">
          <mxGeometry x="-60" y="-780" width="60" height="80" as="geometry" />
        </mxCell>
        <mxCell id="VEVb_EyQW8ueSsU06ZdD-34" value="copy" style="endArrow=classic;html=1;rounded=0;exitX=1;exitY=0.5;exitDx=0;exitDy=0;exitPerimeter=0;entryX=0;entryY=0.5;entryDx=0;entryDy=0;entryPerimeter=0;" parent="1" source="VEVb_EyQW8ueSsU06ZdD-28" target="VEVb_EyQW8ueSsU06ZdD-33" edge="1">
          <mxGeometry width="50" height="50" relative="1" as="geometry">
            <mxPoint x="-260" y="-790" as="sourcePoint" />
            <mxPoint x="-210" y="-840" as="targetPoint" />
          </mxGeometry>
        </mxCell>
        <mxCell id="VEVb_EyQW8ueSsU06ZdD-36" value="const buf3 = new Buffer.alloc(buf1.length); &lt;br&gt;buf3.copy(buf1);" style="endArrow=classic;html=1;rounded=0;entryX=0.5;entryY=0;entryDx=0;entryDy=0;entryPerimeter=0;exitX=0.5;exitY=1;exitDx=0;exitDy=0;" parent="1" source="VEVb_EyQW8ueSsU06ZdD-27" target="VEVb_EyQW8ueSsU06ZdD-33" edge="1">
          <mxGeometry width="50" height="50" relative="1" as="geometry">
            <mxPoint x="-260" y="-790" as="sourcePoint" />
            <mxPoint x="-210" y="-840" as="targetPoint" />
          </mxGeometry>
        </mxCell>
        <mxCell id="VEVb_EyQW8ueSsU06ZdD-37" value="创建一个新的Buffer实例时，需要注意共享跟拷贝之间的区别" style="text;html=1;strokeColor=none;fillColor=none;align=center;verticalAlign=middle;whiteSpace=wrap;rounded=0;" parent="1" vertex="1">
          <mxGeometry x="-630" y="-1060" width="400" height="30" as="geometry" />
        </mxCell>
        <mxCell id="Os1HGULcK5lBYgt0bCTE-7" value="" style="edgeStyle=orthogonalEdgeStyle;rounded=0;orthogonalLoop=1;jettySize=auto;html=1;" edge="1" parent="1" source="Os1HGULcK5lBYgt0bCTE-1" target="Os1HGULcK5lBYgt0bCTE-6">
          <mxGeometry relative="1" as="geometry" />
        </mxCell>
        <mxCell id="Os1HGULcK5lBYgt0bCTE-1" value="字节序计算机硬件有两种储存数据的方式：大端字节序（big endian）和小端字节序（little endian）。" style="text;html=1;strokeColor=none;fillColor=none;align=center;verticalAlign=middle;whiteSpace=wrap;rounded=0;" vertex="1" parent="1">
          <mxGeometry x="-120" y="-1470" width="340" height="30" as="geometry" />
        </mxCell>
        <mxCell id="Os1HGULcK5lBYgt0bCTE-2" value="" style="endArrow=classic;html=1;rounded=0;entryX=0;entryY=0.5;entryDx=0;entryDy=0;" edge="1" parent="1" target="Os1HGULcK5lBYgt0bCTE-1">
          <mxGeometry width="50" height="50" relative="1" as="geometry">
            <mxPoint x="-420" y="-1455" as="sourcePoint" />
            <mxPoint x="-210" y="-1630" as="targetPoint" />
          </mxGeometry>
        </mxCell>
        <mxCell id="Os1HGULcK5lBYgt0bCTE-6" value="可以用代码判断系统的默认字节序，如用Uint8Array 来读取 Uint16Array的第一个字节的值是多少来判断" style="text;html=1;strokeColor=none;fillColor=none;align=center;verticalAlign=middle;whiteSpace=wrap;rounded=0;" vertex="1" parent="1">
          <mxGeometry x="-120" y="-1530" width="340" height="30" as="geometry" />
        </mxCell>
      </root>
    </mxGraphModel>
  </diagram>
</mxfile>
